IKResults-ET4
version=1
nRows=29
nColumns=24
inDegrees=yes

Units are S.I. units (second, meters, Newtons, ...)
If the header above contains a line with 'inDegrees', this indicates whether rotational values are in degrees (yes) or radians (no).

endheader
time	pelvis_tilt	pelvis_list	pelvis_rotation	pelvis_tx	pelvis_ty	pelvis_tz	hip_flexion_r	hip_adduction_r	hip_rotation_r	knee_angle_r	ankle_angle_r	subtalar_angle_r	mtp_angle_r	hip_flexion_l	hip_adduction_l	hip_rotation_l	knee_angle_l	ankle_angle_l	subtalar_angle_l	mtp_angle_l	lumbar_extension	lumbar_bending	lumbar_rotation
      4.40000000	      4.87223589	     -5.73200160	   -179.82121535	      1.48719657	      0.97099628	     -0.09684344	      0.47821438	     -8.62098859	      1.08352476	    -52.77648912	     -9.94481994	      7.59291531	      0.00000000	     30.98637591	      6.65730985	      1.97558493	    -26.27480455	      7.33319355	      6.00350822	      0.00000000	    -14.37769669	    -13.18207451	      2.51131444
      4.41000000	      4.59861066	     -5.65241021	   -179.40243813	      1.47230102	      0.97376023	     -0.09368706	      1.75221192	     -8.37634625	      1.39539073	    -55.22430549	     -8.41079998	      7.02519187	      0.00000000	     29.97746356	      7.04349757	      2.10497475	    -26.77834819	      7.95491723	      6.12884211	      0.00000000	    -14.80158266	    -12.74573603	      2.26576323
      4.42000000	      4.40333040	     -5.58797159	   -179.36881902	      1.45818338	      0.97624827	     -0.09166964	      3.42638726	     -8.07125923	      1.99818810	    -57.65255249	     -6.69283393	      6.22159511	      0.00000000	     28.98020841	      7.22093476	      1.95165205	    -27.04902038	      8.65013618	      6.62104379	      0.00000000	    -15.18830100	    -12.49699541	      1.60785786
      4.43000000	      4.14477414	     -5.45851886	   -179.35813751	      1.44407903	      0.97890299	     -0.08957219	      5.06813938	     -7.73770194	      2.46071422	    -59.68646571	     -5.00775779	      5.29923272	      0.00000000	     27.86237633	      7.38987270	      2.16292843	    -27.28072395	      9.34350972	      6.38277317	      0.00000000	    -15.54588772	    -12.06644313	      1.51128758
      4.44000000	      3.83122218	     -5.26828185	   -179.36659582	      1.42992875	      0.98169847	     -0.08754124	      6.64477618	     -7.34645600	      2.75437207	    -61.35553791	     -3.81566358	      3.45468863	      0.00000000	     26.63136192	      7.51617655	      2.51077943	    -27.42754110	     10.00230069	      5.98093653	      0.00000000	    -15.97551715	    -11.63355707	      1.26384108
      4.45000000	      3.52581399	     -5.06307681	   -179.39850822	      1.41564410	      0.98455684	     -0.08547772	      8.20105222	     -7.00540088	      2.91144961	    -62.64324082	     -2.21042049	      1.98429137	      0.00000000	     25.31196979	      7.62968828	      2.96575047	    -27.38852104	     10.67239345	      5.54148595	      0.00000000	    -16.26320286	    -11.08399765	      1.21493674
      4.46000000	      3.30178281	     -4.83320702	   -179.42715499	      1.40143776	      0.98732586	     -0.08344859	      9.82385146	     -6.67044408	      2.96453482	    -63.60437484	     -1.04901488	     -0.44462653	      0.00000000	     24.04357255	      7.71746713	      3.52278511	    -27.26417224	     11.08416435	      4.67558688	      0.00000000	    -16.53400179	    -10.63597412	      1.08561925
      4.47000000	      3.13400506	     -4.61448646	   -179.50599356	      1.38730683	      0.99005052	     -0.08140704	     11.54041261	     -6.42413117	      2.85586075	    -64.28201027	      0.34521518	     -2.18685809	      0.00000000	     22.75256535	      7.79776573	      4.13219233	    -26.96603478	     11.50622474	      3.84992268	      0.00000000	    -16.66029594	    -10.13031071	      1.03547865
      4.48000000	      2.98462768	     -4.42469002	   -179.48847371	      1.37287130	      0.99278390	     -0.07947984	     13.20583778	     -6.26209012	      2.52592582	    -64.63166151	      1.85877105	     -3.18552469	      0.00000000	     21.46267744	      7.89474556	      4.68376410	    -26.64512610	     11.98523855	      3.40498006	      0.00000000	    -16.72529719	     -9.67611836	      1.00946704
      4.49000000	      2.80895632	     -4.28389877	   -179.40918242	      1.35827381	      0.99556880	     -0.07734170	     14.74259039	     -6.21676771	      2.11343086	    -64.60267892	      3.28010039	     -4.00508403	      0.00000000	     20.07269010	      8.01546747	      5.23571245	    -26.25074197	     12.41599223	      2.89662603	      0.00000000	    -16.79165086	     -9.22368191	      0.93075902
      4.50000000	      2.69306402	     -4.24860966	   -179.37940426	      1.34389480	      0.99807385	     -0.07542842	     16.40010596	     -6.28350813	      1.74761435	    -64.40795890	      4.82352116	     -4.28374634	      0.00000000	     18.58448416	      8.22916367	      5.94409909	    -25.48039715	     12.52637113	      1.76258661	      0.00000000	    -16.81627022	     -8.98530850	      0.66313284
      4.51000000	      2.54077125	     -4.23441555	   -179.29874718	      1.32950777	      1.00049010	     -0.07345915	     17.94022319	     -6.42982418	      1.29899196	    -63.90627939	      6.26223837	     -3.79554884	      0.00000000	     16.95396269	      8.41363073	      6.58669355	    -24.48878416	     12.77578600	      1.15978337	      0.00000000	    -16.88538359	     -8.73403330	      0.41644950
      4.52000000	      2.36270426	     -4.08318492	   -179.22608516	      1.31507202	      1.00264579	     -0.07192050	     19.33633848	     -6.37128283	      0.85595237	    -63.03992904	      7.57440963	     -3.04465089	      0.00000000	     15.49177356	      8.31789696	      6.56990259	    -23.85342630	     13.22937875	      1.48424558	      0.00000000	    -16.95292019	     -8.37374017	      0.21292087
      4.53000000	      2.18423569	     -4.01564105	   -179.12928489	      1.30064613	      1.00465364	     -0.07022825	     20.66907302	     -6.40932238	      0.42266322	    -61.96290196	      8.82733640	     -2.05042792	      0.00000000	     13.79625174	      8.33439515	      6.92475652	    -22.76681226	     13.49501428	      1.35486694	      0.00000000	    -17.03777996	     -8.08141244	     -0.02299673
      4.54000000	      1.97319927	     -3.91976904	   -179.03652445	      1.28636785	      1.00643552	     -0.06887672	     21.92744274	     -6.39643137	     -0.01076369	    -60.59605860	      9.82363021	     -0.90422817	      0.00000000	     12.07466621	      8.23046241	      7.03291320	    -21.66661192	     13.86618928	      1.66129072	      0.00000000	    -17.18804892	     -7.79771979	     -0.27837248
      4.55000000	      1.78657755	     -3.80282711	   -178.93334567	      1.27213424	      1.00783853	     -0.06754068	     23.13906344	     -6.33806350	     -0.43440063	    -59.01928574	     11.17832715	      0.38465903	      0.00000000	     10.39258962	      8.09001230	      7.01224151	    -20.53302753	     14.14505393	      2.08540267	      0.00000000	    -17.29520763	     -7.48453463	     -0.52608286
      4.56000000	      1.59018590	     -3.71013810	   -178.85517214	      1.25793002	      1.00898462	     -0.06640332	     24.32454977	     -6.22796672	     -0.79899206	    -57.33551914	     12.00893371	      1.19826830	      0.00000000	      8.69346233	      7.96397960	      7.05546867	    -19.40779202	     14.40423311	      2.40250204	      0.00000000	    -17.42642944	     -7.26215009	     -0.79233115
      4.57000000	      1.40686575	     -3.67641398	   -178.80723560	      1.24370027	      1.00989115	     -0.06531901	     25.42354567	     -6.16160280	     -1.10949459	    -55.45094843	     12.80750649	      1.64572278	      0.00000000	      6.93910634	      7.91026713	      7.27054339	    -18.22610245	     14.69453837	      2.45296990	      0.00000000	    -17.56042555	     -7.01421763	     -0.94375284
      4.58000000	      1.22752921	     -3.61602132	   -178.77971394	      1.22939750	      1.01050591	     -0.06442096	     26.44531988	     -6.02635381	     -1.45450145	    -53.32344163	     13.52003907	      2.18796399	      0.00000000	      5.16698748	      7.80681492	      7.45296708	    -16.92697169	     14.91268288	      2.54125684	      0.00000000	    -17.70004476	     -6.82539981	     -1.14903250
      4.59000000	      1.05691824	     -3.61292821	   -178.76899209	      1.21498982	      1.01084932	     -0.06360392	     27.39319704	     -5.90812181	     -1.76265830	    -51.05579077	     14.18204468	      2.94521744	      0.00000000	      3.37025451	      7.73942395	      7.56055447	    -15.55780460	     14.94109582	      2.69717005	      0.00000000	    -17.75119757	     -6.81635588	     -1.54442337
      4.60000000	      0.92841254	     -3.59942309	   -178.76486939	      1.20050168	      1.01085410	     -0.06274404	     28.32298747	     -5.75729456	     -2.12096003	    -48.60708240	     14.54775945	      2.98441974	      0.00000000	      1.60169447	      7.70094645	      7.78504414	    -14.20828821	     15.05261752	      2.56802459	      0.00000000	    -17.79778231	     -6.64432126	     -1.69994714
      4.61000000	      0.86374717	     -3.57517471	   -178.64839538	      1.18626987	      1.01050137	     -0.06188481	     29.15363279	     -5.56540920	     -2.39308711	    -45.99038468	     14.86608784	      3.02189429	      0.00000000	     -0.03444437	      7.60359943	      7.94909227	    -12.91799632	     15.08716686	      2.63287328	      0.00000000	    -17.84389204	     -6.50741498	     -1.95855341
      4.62000000	      0.80834964	     -3.62590397	   -178.65139605	      1.17148088	      1.00979045	     -0.06123357	     29.92410644	     -5.40126116	     -2.64391608	    -43.31087592	     15.36225725	      3.09658509	      0.00000000	     -1.68699702	      7.55813907	      7.82254015	    -11.62687105	     15.17410410	      2.97141336	      0.00000000	    -17.80324873	     -6.47397900	     -2.24887195
      4.63000000	      0.78307770	     -3.63087147	   -178.59340117	      1.15652582	      1.00883843	     -0.06071738	     30.60327205	     -5.18667609	     -2.94313311	    -40.48117227	     15.70474754	      3.29052320	      0.00000000	     -3.22872131	      7.42231357	      7.45523027	    -10.51392316	     15.52512014	      4.03678921	      0.00000000	    -17.72273877	     -6.46010014	     -2.78565486
      4.64000000	      0.87903971	     -3.71523041	   -178.56829298	      1.14184506	      1.00736977	     -0.06025108	     31.39551812	     -5.00875656	     -3.09205730	    -37.60722367	     16.08279192	      3.47199465	      0.00000000	     -4.46085214	      7.39566253	      7.09195177	     -9.70806565	     15.83692592	      4.90427589	      0.00000000	    -17.53822686	     -6.48656772	     -3.17007125
      4.65000000	      0.97889348	     -3.80133307	   -178.47055472	      1.12707259	      1.00541767	     -0.05992935	     32.05921278	     -4.81775603	     -3.13643380	    -34.74431477	     16.64312728	      3.57872686	      0.00000000	     -5.60324106	      7.39069071	      6.97437460	     -9.12636433	     16.21372242	      5.28621342	      0.00000000	    -17.36562232	     -6.53344198	     -3.40793680
      4.66000000	      1.16788083	     -3.92093135	   -178.30071377	      1.11230055	      1.00306158	     -0.05949837	     32.68489547	     -4.69695343	     -3.07321493	    -31.69654024	     16.96118788	      3.97432665	      0.00000000	     -6.43798548	      7.42672943	      6.70949605	     -8.94965483	     16.86186901	      6.26729418	      0.00000000	    -17.05456276	     -6.63049770	     -3.84729938
      4.67000000	      1.42190080	     -4.05089325	   -178.04058124	      1.09764406	      1.00041109	     -0.05902356	     33.28465076	     -4.59487904	     -2.90760544	    -28.65104450	     17.22873866	      4.14437891	      0.00000000	     -7.04546755	      7.48671268	      6.60602703	     -9.09318348	     17.44924588	      6.96096683	      0.00000000	    -16.79730519	     -6.72437958	     -4.32606930
      4.68000000	      1.70173721	     -4.18804610	   -177.67658003	      1.08298073	      0.99752107	     -0.05839087	     33.78925969	     -4.56154965	     -2.68651941	    -25.58556304	     17.44084607	      4.40898888	      0.00000000	     -7.49697755	      7.56644876	      6.62744913	     -9.50475581	     18.02463237	      7.69296010	      0.00000000	    -16.57034976	     -6.77349272	     -5.11224775
